<!-- File: carpet-store-icon.svg
     ViewBox 0 0 128 128
     Single-file, scalable, accessible -->
<svg xmlns="http://www.w3.org/2000/svg" viewBox="0 0 128 128" width="128" height="128" role="img" aria-labelledby="title desc">
  <title id="title">Carpet Store Icon</title>
  <desc id="desc">Stylized rolled carpet with geometric pattern and fringe</desc>

  <!-- soft shadow -->
  <ellipse cx="64" cy="100" rx="32" ry="6" opacity="0.08" />

  <!-- main folded/rolled carpet shape -->
  <g transform="translate(0,0)">
    <!-- back layer of roll -->
    <path d="M18 42c0-8 10-18 30-18s42 12 54 18c0 0-2 44-12 54-10 10-33 18-72-6 0 0 2-34 0-46z"
          fill="#C04A2C"/>
    <!-- top/front layer -->
    <path d="M26 38c18-10 46-10 64 0 0 0-2 30-10 44-8 14-30 20-54 6-8-5-12-26-9-50z"
          fill="#E26A46"/>
    <!-- rolled end (cylinder) -->
    <ellipse cx="92" cy="46" rx="12" ry="9" fill="#A63C22"/>
    <ellipse cx="92" cy="46" rx="8" ry="5" fill="#F1C9B8" opacity="0.18"/>
  </g>

  <!-- geometric pattern (diamonds) on visible face -->
  <g transform="translate(28,48)">
    <g transform="scale(0.9)">
      <rect x="0" y="0" width="72" height="40" rx="4" fill="none"/>
      <!-- diamonds row -->
      <g fill="#FFDFAF" opacity="0.95">
        <path d="M8 20 L16 12 L24 20 L16 28 Z"/>
        <path d="M28 20 L36 12 L44 20 L36 28 Z"/>
        <path d="M48 20 L56 12 L64 20 L56 28 Z"/>
      </g>
      <!-- small accents -->
      <g fill="#7A2C18" opacity="0.9">
        <circle cx="16" cy="20" r="1.5"/>
        <circle cx="36" cy="20" r="1.5"/>
        <circle cx="56" cy="20" r="1.5"/>
      </g>
    </g>
  </g>

  <!-- fringe at bottom -->
  <g transform="translate(26,92)" stroke="#F1C9B8" stroke-width="2" stroke-linecap="round">
    <line x1="0" y1="0" x2="0" y2="8"/>
    <line x1="6" y1="0" x2="6" y2="8"/>
    <line x1="12" y1="0" x2="12" y2="8"/>
    <line x1="18" y1="0" x2="18" y2="8"/>
    <line x1="24" y1="0" x2="24" y2="8"/>
    <line x1="30" y1="0" x2="30" y2="8"/>
    <line x1="36" y1="0" x2="36" y2="8"/>
    <line x1="42" y1="0" x2="42" y2="8"/>
    <line x1="48" y1="0" x2="48" y2="8"/>
  </g>

  <!-- outline for crisp small-size rendering -->
  <path d="M18 42c0-8 10-18 30-18s42 12 54 18c0 0-2 44-12 54-10 10-33 18-72-6 0 0 2-34 0-46z"
        fill="none" stroke="#6B2716" stroke-width="1.5" opacity="0.8"/>
</svg>
